<?xml version="1.0" standalone="no"?>
<!DOCTYPE svg PUBLIC "-//W3C//DTD SVG 20010904//EN"
 "http://www.w3.org/TR/2001/REC-SVG-20010904/DTD/svg10.dtd">
<svg version="1.0" xmlns="http://www.w3.org/2000/svg"
 width="1696.000000pt" height="2520.000000pt" viewBox="0 0 1696.000000 2520.000000"
 preserveAspectRatio="xMidYMid meet">

<g transform="translate(0.000000,2520.000000) scale(0.100000,-0.100000)"
fill="#000000" stroke="none">
<path d="M8139 24123 l-77 -4 -60 -132 c-33 -73 -130 -274 -215 -447 -125
-254 -471 -968 -809 -1670 -28 -58 -71 -145 -95 -195 -25 -49 -82 -169 -128
-265 -45 -96 -137 -285 -203 -420 -215 -440 -333 -682 -412 -845 -158 -327
-224 -463 -272 -565 -105 -219 -169 -352 -277 -573 -61 -125 -138 -283 -170
-350 -32 -67 -118 -243 -190 -390 -72 -148 -131 -270 -131 -272 0 -3 -119
-251 -280 -580 -102 -208 -194 -400 -252 -525 -17 -36 -64 -135 -106 -220 -41
-85 -96 -200 -122 -255 -26 -55 -91 -190 -145 -300 -54 -110 -126 -258 -160
-330 -34 -71 -104 -215 -155 -320 -51 -104 -104 -215 -118 -245 -13 -30 -93
-194 -177 -365 -83 -170 -169 -348 -191 -395 -100 -216 -466 -950 -475 -950
-3 0 -26 44 -52 98 -26 53 -167 341 -314 639 l-268 543 -422 0 -422 0 43 -92
c24 -51 89 -187 145 -301 55 -115 101 -210 101 -213 0 -2 55 -115 123 -251 67
-137 146 -297 174 -358 28 -60 103 -216 166 -345 329 -675 310 -632 293 -665
-8 -16 -44 -91 -79 -165 -36 -74 -113 -234 -172 -355 -59 -121 -124 -256 -145
-300 -81 -170 -151 -316 -225 -470 -42 -88 -94 -196 -115 -240 -21 -44 -97
-203 -169 -354 -72 -151 -131 -278 -131 -283 0 -4 190 -7 422 -6 l422 3 50
100 c28 56 170 343 315 638 146 295 268 537 271 537 8 0 210 -404 435 -870 84
-173 208 -427 275 -565 67 -137 153 -313 190 -390 146 -302 233 -481 360 -740
73 -148 156 -319 185 -380 114 -237 208 -431 330 -680 241 -491 434 -888 731
-1508 58 -119 148 -303 199 -407 52 -105 95 -192 95 -194 0 -2 90 -188 201
-412 110 -225 212 -434 226 -464 14 -30 71 -147 126 -260 55 -113 133 -275
174 -360 101 -208 361 -745 490 -1010 58 -118 123 -253 145 -300 22 -47 113
-233 201 -415 88 -181 186 -384 217 -450 70 -148 186 -385 340 -700 159 -323
222 -400 395 -480 127 -59 186 -69 420 -71 116 -1 220 2 232 7 23 9 57 69 169
304 33 72 107 224 163 339 55 115 101 210 101 212 0 3 107 224 346 716 96 197
174 359 174 361 0 2 38 82 83 178 46 96 102 212 125 259 22 47 91 189 152 315
62 127 143 293 180 370 37 77 103 214 147 305 45 91 106 217 136 280 107 225
191 398 305 630 63 129 138 285 167 345 29 61 94 196 145 300 99 204 204 421
305 630 34 72 104 216 155 320 433 891 732 1506 795 1640 23 50 104 215 179
368 75 153 136 279 136 281 0 2 59 125 131 272 72 148 153 314 179 369 26 55
111 230 189 389 78 158 141 290 141 292 0 2 83 174 184 382 101 207 229 471
285 586 56 115 105 206 109 202 4 -4 149 -291 322 -639 l315 -632 423 -3 c232
-1 422 -1 422 1 0 3 -41 89 -91 193 -50 104 -113 234 -139 289 -26 55 -97 201
-158 325 -60 124 -148 306 -195 405 -47 99 -123 259 -170 355 -46 96 -100 209
-120 250 -19 41 -67 142 -106 223 -39 82 -71 152 -71 156 0 5 52 116 116 247
113 232 175 360 284 589 29 61 93 193 142 295 50 102 127 264 173 360 46 96
142 294 214 440 l131 265 -422 3 c-232 1 -425 -1 -429 -5 -5 -5 -103 -199
-220 -433 -194 -390 -243 -490 -369 -757 -24 -51 -47 -93 -52 -93 -5 0 -12 10
-17 23 -9 21 -110 229 -488 997 -86 173 -179 365 -208 425 -29 61 -101 209
-160 330 -59 121 -138 283 -175 360 -37 77 -121 248 -185 380 -65 132 -152
312 -195 400 -42 88 -125 257 -182 375 -116 236 -202 414 -299 620 -35 74
-112 232 -170 350 -59 119 -117 238 -129 265 -13 28 -68 142 -122 255 -55 113
-133 273 -173 355 -197 406 -240 495 -335 690 -157 322 -290 597 -290 601 0 1
-70 146 -156 321 -86 175 -180 368 -209 428 -56 117 -150 311 -315 650 -56
116 -155 320 -220 455 -65 135 -166 344 -225 465 -59 121 -129 265 -155 320
-26 55 -78 163 -115 240 -37 77 -93 194 -125 260 -32 66 -110 228 -175 360
-64 132 -138 283 -163 335 -86 180 -141 244 -264 306 -108 54 -172 64 -408 62
-113 -1 -239 -4 -281 -5z m381 -1063 c0 -9 205 -430 705 -1445 92 -187 203
-412 245 -500 43 -88 144 -295 225 -460 200 -409 325 -664 373 -765 22 -47
149 -305 282 -575 133 -269 275 -557 315 -640 40 -82 138 -284 219 -448 80
-163 146 -299 146 -302 0 -2 40 -84 88 -182 49 -98 125 -254 169 -348 45 -93
167 -343 271 -555 104 -212 216 -441 249 -510 34 -69 129 -264 213 -434 83
-170 187 -382 229 -470 43 -89 146 -298 228 -466 278 -563 401 -815 642 -1313
39 -81 119 -246 178 -365 244 -501 333 -685 333 -692 0 -11 -75 -169 -215
-455 -120 -244 -301 -617 -390 -802 -27 -57 -53 -103 -58 -103 -4 0 -63 114
-131 253 -68 138 -242 491 -386 782 -542 1094 -1074 2172 -1600 3240 -640
1299 -1154 2339 -1865 3770 -175 352 -425 856 -555 1120 -131 264 -326 659
-434 877 l-196 397 151 308 c202 412 452 926 526 1081 12 26 18 30 29 21 8 -6
14 -15 14 -19z m-972 -2621 c82 -167 384 -776 672 -1354 287 -577 601 -1210
698 -1405 96 -195 352 -713 569 -1150 217 -437 444 -896 503 -1020 59 -124
206 -421 325 -660 120 -239 270 -543 335 -675 216 -441 1076 -2178 1544 -3118
190 -382 346 -697 346 -700 0 -3 -72 -152 -160 -331 -88 -180 -184 -377 -214
-439 -29 -61 -108 -222 -173 -357 -66 -135 -159 -324 -206 -420 -47 -96 -149
-305 -227 -465 -78 -159 -168 -344 -200 -410 -88 -184 -213 -441 -370 -760
-78 -159 -177 -362 -220 -450 -43 -88 -130 -268 -195 -400 -113 -231 -231
-472 -375 -770 -75 -155 -314 -643 -464 -947 -54 -109 -101 -198 -105 -198 -6
0 -838 1664 -1554 3110 -720 1454 -818 1652 -982 1985 -92 187 -286 579 -430
870 -145 292 -373 753 -508 1025 -134 272 -394 797 -577 1165 -183 369 -408
823 -500 1010 -92 187 -248 502 -347 700 -98 198 -199 404 -223 457 l-43 98
78 162 c43 90 134 278 203 418 68 140 145 298 169 350 25 52 129 264 231 470
101 206 206 420 232 475 26 55 94 195 150 310 199 408 442 907 520 1070 32 66
126 260 210 430 84 171 184 375 222 455 39 80 124 255 190 390 66 135 165 337
220 450 55 113 154 315 220 450 66 135 147 301 181 370 74 153 76 156 93 132
7 -10 80 -155 162 -323z m-3153 -7201 c558 -1125 954 -1924 1083 -2188 66
-135 187 -382 270 -550 82 -168 218 -444 302 -615 84 -170 230 -467 325 -660
356 -720 562 -1139 715 -1450 87 -176 237 -482 335 -680 97 -198 237 -481 310
-630 73 -148 350 -706 615 -1240 265 -533 565 -1139 667 -1345 l185 -375 -41
-80 c-22 -44 -89 -181 -149 -305 -60 -124 -167 -342 -237 -485 -70 -143 -159
-326 -198 -407 -55 -114 -74 -144 -84 -136 -7 6 -13 14 -13 18 0 4 -97 204
-215 445 -118 240 -215 438 -215 440 0 2 -79 164 -175 360 -96 196 -175 358
-175 360 0 2 -59 124 -131 271 -72 148 -148 305 -169 349 -21 44 -81 170 -135
280 -109 223 -235 483 -300 620 -24 50 -132 270 -240 490 -109 220 -226 460
-262 534 -107 222 -204 422 -338 696 -70 143 -158 323 -195 400 -37 77 -134
275 -215 440 -81 165 -182 372 -225 460 -43 88 -148 304 -235 480 -148 301
-215 438 -390 800 -274 567 -426 877 -763 1555 -345 696 -622 1259 -686 1396
l-47 100 134 275 c74 151 195 398 269 549 75 151 163 332 197 403 34 70 65
127 70 127 4 0 164 -316 356 -702z"/>
</g>
</svg>
